<?xml version="1.0" standalone="no"?>
<!DOCTYPE svg PUBLIC "-//W3C//DTD SVG 20010904//EN"
 "http://www.w3.org/TR/2001/REC-SVG-20010904/DTD/svg10.dtd">
<svg version="1.0" xmlns="http://www.w3.org/2000/svg"
 width="100.000000pt" height="100.000000pt" viewBox="0 0 100.000000 100.000000"
 preserveAspectRatio="xMidYMid meet">
<metadata>
Created by potrace 1.14, written by Peter Selinger 2001-2017
</metadata>
<g transform="translate(0.000000,100.000000) scale(0.100000,-0.100000)"
fill="#000000" stroke="none">
<path d="M301 906 l-49 -52 -84 2 c-94 2 -139 -13 -157 -52 -15 -34 -15 -653
0 -687 23 -51 30 -52 495 -52 l434 0 27 28 28 27 0 340 0 340 -27 27 c-26 26
-33 27 -129 29 l-101 2 -44 48 -43 49 -150 1 -150 1 -50 -51z m350 -96 l43
-50 102 0 101 0 0 -294 c0 -292 0 -294 -21 -298 -11 -2 -190 -3 -396 -2 l-375
0 -1 297 -1 297 102 0 103 0 43 50 43 50 107 0 107 0 43 -50z"/>
<path d="M417 696 c-55 -20 -103 -61 -134 -114 -37 -62 -39 -165 -6 -228 99
-187 365 -178 452 16 29 64 23 152 -12 213 -47 79 -127 126 -217 126 -25 0
-62 -6 -83 -13z m162 -115 c46 -32 65 -68 66 -120 0 -77 -55 -138 -130 -145
-115 -9 -200 112 -147 210 40 75 146 102 211 55z"/>
</g>
</svg>
